<?xml version="1.0" encoding="UTF-8" standalone="no"?>
<!-- Created with Inkscape (http://www.inkscape.org/) -->

<svg
   xmlns:dc="http://purl.org/dc/elements/1.1/"
   xmlns:cc="http://creativecommons.org/ns#"
   xmlns:rdf="http://www.w3.org/1999/02/22-rdf-syntax-ns#"
   xmlns:svg="http://www.w3.org/2000/svg"
   xmlns="http://www.w3.org/2000/svg"
   xmlns:sodipodi="http://sodipodi.sourceforge.net/DTD/sodipodi-0.dtd"
   xmlns:inkscape="http://www.inkscape.org/namespaces/inkscape"
   width="56.444443mm"
   height="16.335039mm"
   viewBox="0 0 199.99999 57.880059"
   id="svg4292"
   version="1.1"
   inkscape:version="0.91 r13725"
   sodipodi:docname="logo.svg">
  <defs
     id="defs4294" />
  <sodipodi:namedview
     id="base"
     pagecolor="#ffffff"
     bordercolor="#666666"
     borderopacity="1.0"
     inkscape:pageopacity="0.0"
     inkscape:pageshadow="2"
     inkscape:zoom="5.6"
     inkscape:cx="71.867955"
     inkscape:cy="-16.658387"
     inkscape:document-units="px"
     inkscape:current-layer="layer1"
     showgrid="false"
     showguides="true"
     inkscape:guide-bbox="true"
     fit-margin-top="0"
     fit-margin-left="0"
     fit-margin-right="0"
     fit-margin-bottom="0"
     inkscape:window-width="1920"
     inkscape:window-height="1017"
     inkscape:window-x="-8"
     inkscape:window-y="-8"
     inkscape:window-maximized="1">
    <sodipodi:guide
       position="269.12386,139.50311"
       orientation="0,1"
       id="guide4885" />
    <sodipodi:guide
       position="360.55245,410.93167"
       orientation="0,1"
       id="guide4887" />
  </sodipodi:namedview>
  <metadata
     id="metadata4297">
    <rdf:RDF>
      <cc:Work
         rdf:about="">
        <dc:format>image/svg+xml</dc:format>
        <dc:type
           rdf:resource="http://purl.org/dc/dcmitype/StillImage" />
        <dc:title></dc:title>
      </cc:Work>
    </rdf:RDF>
  </metadata>
  <g
     inkscape:label="Layer 1"
     inkscape:groupmode="layer"
     id="layer1"
     transform="translate(1554.8382,-579.69951)">
    <g
       style="font-style:normal;font-weight:normal;font-size:394.06072998px;line-height:125%;font-family:sans-serif;text-align:center;letter-spacing:0px;word-spacing:0px;text-anchor:middle;fill:#ffffff;fill-opacity:1;stroke:none;stroke-width:1px;stroke-linecap:butt;stroke-linejoin:miter;stroke-opacity:1"
       id="text4265"
       transform="matrix(0.09481771,0,0,0.09481771,-1407.412,577.12572)">
      <path
         d="m -1373.9706,379.83207 -94.8594,0 0,80.04358 90.4339,0 2.5014,-33.47977 42.7155,0 0,76.58016 -221.6591,0 0,-33.67218 29.8239,-5.77237 0,-201.07103 -29.8239,-5.77237 0,-33.8646 29.8239,0 191.4504,0 0,76.77258 -43.1004,0 -2.5014,-33.47977 -89.6642,0 0,70.42296 94.8594,0 0,43.29281 z"
         style="font-style:normal;font-variant:normal;font-weight:bold;font-stretch:normal;font-family:'Roboto Slab';-inkscape-font-specification:'Roboto Slab Bold';text-align:center;letter-spacing:33.42976761px;text-anchor:middle;fill:#ffffff;fill-opacity:1"
         id="path4862"
         inkscape:connector-curvature="0" />
      <path
         d="m -712.55655,222.82349 0,74.65604 -43.10039,0 -2.30895,-31.36323 -51.56654,0 0,197.41519 30.01634,5.77237 0,33.67218 -116.21713,0 0,-33.67218 30.01635,-5.77237 0,-197.41519 -51.37413,0 -2.30895,31.36323 -42.90798,0 0,-74.65604 249.75138,0 z"
         style="font-style:normal;font-variant:normal;font-weight:bold;font-stretch:normal;font-family:'Roboto Slab';-inkscape-font-specification:'Roboto Slab Bold';text-align:center;letter-spacing:33.42976761px;text-anchor:middle;fill:#ffffff;fill-opacity:1"
         id="path4866"
         inkscape:connector-curvature="0" />
      <path
         d="m -535.20231,222.82349 q 47.71829,0 74.84845,21.93502 27.13016,21.74261 27.13016,60.22511 0,21.16537 -11.35234,36.75078 -11.35233,15.58541 -33.28736,25.20603 24.82121,7.31167 35.59631,24.43638 10.96751,16.9323 10.96751,42.13833 l 0,14.23853 q 0,9.23579 3.65584,14.43093 3.65583,5.00273 12.12198,5.96479 l 6.92685,0.96206 0,33.86459 -29.05428,0 q -27.51498,0 -38.67491,-14.81576 -11.15992,-14.81576 -11.15992,-38.29008 l 0,-15.97023 q 0,-20.39572 -10.96751,-31.94047 -10.7751,-11.73716 -30.59358,-12.3144 l -45.98658,0 0,73.88639 30.01634,5.77237 0,33.67218 -116.02471,0 0,-33.67218 29.82393,-5.77237 0,-201.07103 -29.82393,-5.77237 0,-33.8646 29.82393,0 96.01382,0 z m -39.82938,123.52881 38.86732,0 q 23.47432,0 35.21148,-10.00545 11.73716,-10.00545 11.73716,-28.86187 0,-18.85642 -11.73716,-30.01635 -11.54475,-11.35233 -34.24942,-11.35233 l -39.82938,0 0,80.236 z"
         style="font-style:normal;font-variant:normal;font-weight:bold;font-stretch:normal;font-family:'Roboto Slab';-inkscape-font-specification:'Roboto Slab Bold';text-align:center;letter-spacing:33.42976761px;text-anchor:middle;fill:#ffffff;fill-opacity:1"
         id="path4868"
         inkscape:connector-curvature="0" />
      <path
         d="m -175.82585,379.83207 -94.85934,0 0,80.04358 90.43385,0 2.50137,-33.47977 42.71556,0 0,76.58016 -221.65916,0 0,-33.67218 29.82394,-5.77237 0,-201.07103 -29.82394,-5.77237 0,-33.8646 29.82394,0 191.4504,0 0,76.77258 -43.10039,0 -2.50137,-33.47977 -89.6642,0 0,70.42296 94.85934,0 0,43.29281 z"
         style="font-style:normal;font-variant:normal;font-weight:bold;font-stretch:normal;font-family:'Roboto Slab';-inkscape-font-specification:'Roboto Slab Bold';text-align:center;letter-spacing:33.42976761px;text-anchor:middle;fill:#ffffff;fill-opacity:1"
         id="path4870"
         inkscape:connector-curvature="0" />
      <path
         d="m 198.75129,295.74782 -1.15447,-0.19241 -75.04086,207.42063 -37.712845,0 -74.656037,-206.65098 -1.1544745,0.19241 5.3875495,122.95156 0,44.06246 30.016344,5.77237 0,33.67218 -116.024717,0 0,-33.67218 29.823932,-5.77237 0,-201.07103 -29.823932,-5.77237 0,-33.8646 29.823932,0 73.30915,0 71.385028,206.45858 1.15447,0 71.96226,-206.45858 103.51791,0 0,33.8646 -30.01634,5.77237 0,201.07103 30.01634,5.77237 0,33.67218 -116.02472,0 0,-33.67218 29.82394,-5.77237 0,-44.06246 5.38754,-123.72121 z"
         style="font-style:normal;font-variant:normal;font-weight:bold;font-stretch:normal;font-family:'Roboto Slab';-inkscape-font-specification:'Roboto Slab Bold';text-align:center;letter-spacing:33.42976761px;text-anchor:middle;fill:#ffffff;fill-opacity:1"
         id="path4872"
         inkscape:connector-curvature="0" />
      <path
         d="m 513.6805,379.83207 -94.85935,0 0,80.04358 90.43386,0 2.50136,-33.47977 42.71557,0 0,76.58016 -221.65916,0 0,-33.67218 29.82393,-5.77237 0,-201.07103 -29.82393,-5.77237 0,-33.8646 29.82393,0 191.45041,0 0,76.77258 -43.1004,0 -2.50136,-33.47977 -89.66421,0 0,70.42296 94.85935,0 0,43.29281 z"
         style="font-style:normal;font-variant:normal;font-weight:bold;font-stretch:normal;font-family:'Roboto Slab';-inkscape-font-specification:'Roboto Slab Bold';text-align:center;letter-spacing:33.42976761px;text-anchor:middle;fill:#ffffff;fill-opacity:1"
         id="path4874"
         inkscape:connector-curvature="0" />
    </g>
    <path
       style="fill:#dd0a30;fill-opacity:1;fill-rule:evenodd;stroke:none;stroke-width:2.78124976px;stroke-linecap:butt;stroke-linejoin:miter;stroke-opacity:1"
       d="m -1547.1476,596.29744 c 1.8428,1.02844 4.7584,1.17444 5.4568,3.14448 l -0.9248,0.73992 c 1.636,0.40652 4.434,0.77408 5.0604,1.74136 -0.068,0.76856 -0.9176,0.62548 -1.4536,0.84824 6.1004,2.0818 12.3692,7.066 16.5552,10.26592 -0.244,0.65672 -0.678,-0.1472 -1.5908,-0.49332 -1.758,0.1508 -1.1204,0.94976 -1.5508,1.41288 4.2512,0.036 -2.172,3.00624 -2.2276,5.20496 -3.5692,-0.2152 -3.9108,2.43088 -4.9148,4.516 -7.2984,4.08648 -10.56,11.53472 -2.0316,3.6882 -4.9232,7.46068 -5.1948,11.07276 -1.1976,5.08672 1.8344,-3.89744 4.4104,-5.25272 6.8204,-7.17764 l 0.4024,0.91204 c -8.4408,8.14536 -1.166,5.24392 -1.156,5.334 l -1.98,2.81412 c -5.9332,6.50792 -0.4772,1.55316 3.8772,-0.48864 -1.146,4.58088 7.4544,-4.50368 12.0232,-7.49136 0.6472,-0.70908 1.1072,-3.10352 1.942,-2.12716 l 0.8324,-1.38728 c 0.04,-0.8442 1.1336,-1.41064 2.0412,-1.03424 1.3448,1.24924 1.9768,2.91588 3.7852,3.62384 0.28,0.75308 -0.36,1.38388 1.0792,2.2916 1.0016,-0.036 1.5772,1.0972 2.2504,1.96272 0,-0.57752 -0.848,-1.55168 0.148,-1.66472 0.6796,0.3288 1.31,0.95292 1.816,2.32332 0.3,-0.4144 -0.128,-1.48516 0.9588,-1.192 0.9636,2.3692 3.1628,2.837 4.2916,5.2502 0.868,-1.19796 -0.14,-2.22016 -1.2024,-3.237 1.6632,-1.06272 2.8532,1.7872 2.6592,2.8208 -0.368,1.30844 2.6348,0.40804 0.116,-3.93068 l -1.3876,-2.2196 1.7572,0.83236 c -0.6444,-1.69852 -2.2196,-2.46628 -3.3292,-3.69944 -0.352,-0.77576 -0.368,-2.2196 1.4104,-0.57808 1.9328,2.18268 3.514,2.88564 3.63,6.33532 -0.5516,2.7788 1.3812,0.99356 0.8784,-0.48556 0.368,0.1848 2.6128,2.38152 2.6128,2.38152 1.9276,2.2652 0.746,0.2608 -1.318,-3.49132 -0.718,-0.95876 -0.9112,-1.74248 -1.2948,-2.5896 0.8968,0.1732 2.3228,2.20808 3.1448,1.52592 -3.5004,-4.84584 -2.1272,-7.8318 -8.5088,-11.69936 -0.534,-1.264 -1.0064,-2.69388 -2.4972,-1.38732 0.8788,-1.55624 -1.6144,-2.84276 -3.6992,-4.16188 0,0 5.734,-7.12136 5.8264,-8.3006 -0.232,-1.15604 2.428,-2.84396 2.428,-2.84396 -0.4996,-1.2472 1.5484,-3.28444 2.6588,-4.578 l 2.5896,-2.68208 -0.368,-2.3122 c 0.4088,1.09892 1.1156,1.2298 1.7572,1.57228 -1.528,-2.04764 0,-2.11344 -0.3,-3.26012 -2.8512,-0.3404 -3.1524,-2.12716 -3.7456,-2.98272 -1.1456,1.05436 -2.3152,2.10056 -4.1852,2.9134 0.452,-0.74648 0.5124,-1.52852 1.5724,-2.21968 0.164,-1.56496 1.3068,-2.81104 2.1272,-4.16188 -0.8344,-0.73748 -1.4976,0.92176 -2.2196,1.75724 -0.5892,-0.1404 -1.0372,-0.3572 -0.8324,-0.92488 0.5836,-0.40076 0.8652,-0.80156 0.8324,-1.20228 0.6448,-1.08312 -2.996,-2.73376 -3.4452,-1.38732 -0.044,2.17112 -0.7124,3.18116 -1.5492,3.88436 -2.8692,0.184 -3.6064,2.87696 -4.4392,5.45672 -2.3972,2.13484 -2.9604,4.6422 -5.9192,9.2486 -0.5444,2.00668 -2.17,1.98308 -2.682,3.79192 -4.1412,-2.66056 -8.482,-7.38436 -11.0984,-7.86132 0.6852,-1.50856 -1.8284,-0.9762 -2.4048,-2.21968 -2.6204,-0.86244 -6.214,-3.2744 -7.3064,-5.91904 l -2.682,-2.21968 c -4.0424,-2.21288 -2.8364,0.3972 -0.5088,1.2948 1.2304,0.47428 5.398,5.06812 4.0004,5.29476 -1.4732,-0.77068 -4.5248,-4.58928 -3.0292,-1.2254 -3.1876,-2.41192 -6.15,-5.49712 -6.3816,-1.43356 -1.8192,-0.028 -2.3864,-1.58956 -2.8668,-2.58952 -0.04,1.34764 -0.944,2.76908 -1.3872,2.72828 0.5968,0.47112 1.4904,0.76432 1.526,1.57228 -2.3092,1.23316 -2.2588,2.97492 -3.1448,4.20808 0.9584,-0.57112 1.798,-0.4294 2.636,-0.2776 0.5344,0.98148 -0.392,1.598 -0.74,2.35844 z"
       id="path4290"
       inkscape:connector-curvature="0"
       sodipodi:nodetypes="cccccccccccccccccccccccccccccccccccccccccccccccccccccccccccccccccccsccccccccc" />
  </g>
</svg>
